<?xml version="1.0" standalone="no"?><!DOCTYPE svg PUBLIC "-//W3C//DTD SVG 1.1//EN" "http://www.w3.org/Graphics/SVG/1.1/DTD/svg11.dtd"><svg t="1705137677654" class="icon" viewBox="0 0 1024 1024" version="1.1" xmlns="http://www.w3.org/2000/svg" p-id="4235" width="128" height="128" data-spm-anchor-id="a313x.search_index.0.i4.45c43a81cRCSTi" xmlns:xlink="http://www.w3.org/1999/xlink"><path d="M148.992 601.6c19.456 0 35.328-15.872 35.328-35.328V101.888h464.384c19.456 0 35.328-15.872 35.328-35.328s-15.872-35.328-35.328-35.328H148.992c-19.456 0-35.328 15.872-35.328 35.328v499.712c0 19.456 15.872 35.328 35.328 35.328zM776.704 637.44c-1.536-17.92-16.896-32.256-34.816-32.256h-29.184v-60.416c0-19.456-15.872-35.328-35.328-35.328s-35.328 15.872-35.328 35.328V640c0 19.456 15.872 35.328 35.328 35.328h31.744l26.112 315.904c1.536 17.92 16.896 32.256 35.328 32.256h3.584c18.944-2.048 33.28-18.944 31.744-37.888l-29.184-348.16z" fill="#040000" p-id="4236"></path><path d="M991.744 297.472c-6.656-5.632-67.584-55.808-168.448-55.808s-161.792 50.176-168.448 56.32c-1.536 1.024-3.072 2.56-4.608 5.12l-56.32 70.144-122.88-118.272c-6.656-6.656-15.872-10.24-25.088-9.728-9.216 0-18.432 4.096-24.576 10.752-6.656 6.656-10.24 15.872-9.728 25.088 0 9.216 4.096 18.432 10.752 24.576L573.44 451.584c6.656 6.144 15.36 9.728 24.576 9.728h3.072c9.728-1.024 18.432-5.632 24.576-13.312l77.312-98.304c8.704-6.656 52.736-36.864 120.32-36.864 52.736 0 91.648 18.944 110.08 30.208v262.656h-29.184c-18.432 0-33.792 14.336-35.328 32.256l-28.672 348.16c-1.536 18.944 12.288 35.84 31.744 37.888h3.584c18.432 0 33.792-14.336 35.328-32.256L936.96 675.84h31.744c19.456 0 35.328-15.872 35.328-35.328V324.096c-0.512-10.24-4.608-19.968-12.288-26.624zM559.104 610.304H55.296c-19.456 0-35.328 15.872-35.328 35.328S35.84 680.96 55.296 680.96h503.296c19.456 0 35.328-15.872 35.328-35.328s-15.36-35.328-34.816-35.328zM813.568 234.496c64.512 0 117.248-52.736 117.248-117.248 0-64.512-52.736-117.248-117.248-117.248S696.32 52.736 696.32 117.248c0 64.512 52.736 117.248 117.248 117.248z m0-163.84c25.6 0 46.592 20.992 46.592 46.592s-20.992 46.592-46.592 46.592-46.592-20.992-46.592-46.592 20.992-46.592 46.592-46.592z" fill="#040000" p-id="4237" data-spm-anchor-id="a313x.search_index.0.i5.45c43a81cRCSTi" class=""></path></svg>